<?xml version="1.0" encoding="iso-8859-1"?>
<!-- Generator: Adobe Illustrator 19.0.0, SVG Export Plug-In . SVG Version: 6.00 Build 0)  -->
<svg version="1.1" id="Layer_1" xmlns="http://www.w3.org/2000/svg" xmlns:xlink="http://www.w3.org/1999/xlink" x="0px" y="0px"
	 viewBox="0 0 512 512" style="enable-background:new 0 0 512 512;" xml:space="preserve" transform="scale(.5) rotate(-45)">
<path style="fill:#D18839;" d="M42.123,506.47L5.531,469.877c-7.374-7.374-7.374-19.331,0-26.705l112.886-112.886
	c0.237-0.237,0.481-0.467,0.73-0.692L480.495,4.839c7.466-6.711,18.877-6.406,25.975,0.692l0,0
	c7.098,7.098,7.402,18.509,0.692,25.975L182.407,392.853c-0.224,0.249-0.455,0.493-0.692,0.73L68.829,506.47
	C61.454,513.844,49.497,513.844,42.123,506.47z"/>
<path style="fill:#FFB150;" d="M181.715,393.584L68.829,506.47c-7.374,7.374-19.33,7.375-26.705,0l-18.296-18.296L506.47,5.531
	c7.098,7.098,7.402,18.509,0.692,25.975L182.407,392.853C182.183,393.103,181.952,393.347,181.715,393.584z"/>
<path style="fill:#8C1A00;" d="M161.722,413.575l-92.894,92.894c-7.374,7.374-19.33,7.375-26.705,0L5.531,469.877
	c-7.375-7.375-7.374-19.33,0-26.705l92.893-92.893L161.722,413.575z"/>
<path style="fill:#BF4D00;" d="M161.722,413.575l-92.894,92.894c-7.374,7.374-19.33,7.375-26.705,0l-31.648-31.647
	c7.375,7.375,19.33,7.374,26.705,0l92.893-92.893L161.722,413.575z"/>
<path style="fill:#F93100;" d="M153.852,421.446l-63.298-63.298l23.611-23.611l63.298,63.298L153.852,421.446z"/>
<path style="fill:#F9B300;" d="M153.852,421.446l-63.298-63.298l11.806-11.806l63.298,63.298L153.852,421.446z"/>
<path style="fill:#FFFFFF;" d="M332.737,179.264c3.26,3.261,3.26,8.546,0,11.806L175.328,348.478c-3.26,3.26-8.546,3.26-11.805,0
	c-3.26-3.26-3.26-8.546,0-11.805l157.408-157.409C324.191,176.004,329.477,176.004,332.737,179.264z M356.348,155.653
	c-3.26-3.26-8.546-3.26-11.806,0l-0.787,0.787c-3.26,3.26-3.26,8.546,0,11.805c3.26,3.261,8.546,3.261,11.806,0l0.787-0.787
	C359.608,164.198,359.608,158.912,356.348,155.653z"/>
<g>
</g>
<g>
</g>
<g>
</g>
<g>
</g>
<g>
</g>
<g>
</g>
<g>
</g>
<g>
</g>
<g>
</g>
<g>
</g>
<g>
</g>
<g>
</g>
<g>
</g>
<g>
</g>
<g>
</g>
</svg>
